HIERARCHY
ROOT hip
{
  OFFSET 0.0 0.0 0.0
  CHANNELS 6 Xposition Yposition Zposition Zrotation Yrotation Xrotation
  JOINT abdomen
  {
    OFFSET 0.0 20.6881 -0.73152
    CHANNELS 3 Zrotation Xrotation Yrotation
    JOINT chest
    {
      OFFSET 0.0 11.7043 -0.48768
      CHANNELS 3 Zrotation Xrotation Yrotation
      JOINT neck
      {
        OFFSET 0.0 22.1894 -2.19456
        CHANNELS 3 Zrotation Xrotation Yrotation
        JOINT head
        {
          OFFSET -0.24384 7.07133 1.2192
          CHANNELS 3 Zrotation Xrotation Yrotation
          JOINT leftEye
          {
            OFFSET 4.14528 8.04674 8.04672
            CHANNELS 3 Zrotation Xrotation Yrotation
            End Site
            {
              OFFSET 1.0 0.0 0.0
            }
          }
          JOINT rightEye
          {
            OFFSET -3.6576 8.04674 8.04672
            CHANNELS 3 Zrotation Xrotation Yrotation
            End Site
            {
              OFFSET 1.0 0.0 0.0
            }
          }
        }
      }
      JOINT rCollar
      {
        OFFSET -2.68224 19.2634 -4.8768
        CHANNELS 3 Zrotation Xrotation Yrotation
        JOINT rShldr
        {
          OFFSET -8.77824 -1.95073 1.46304
          CHANNELS 3 Zrotation Xrotation Yrotation
          JOINT rForeArm
          {
            OFFSET -28.1742 -1.7115 0.48768
            CHANNELS 3 Zrotation Xrotation Yrotation
            JOINT rHand
            {
              OFFSET -22.5879 0.773209 7.07136
              CHANNELS 3 Zrotation Xrotation Yrotation
              JOINT rThumb1
              {
                OFFSET -1.2192 -0.487915 3.41376
                CHANNELS 3 Zrotation Xrotation Yrotation
                JOINT rThumb2
                {
                  OFFSET -3.37035 -0.52449 3.41376
                  CHANNELS 3 Zrotation Xrotation Yrotation
                  End Site
                  {
                    OFFSET -1.78271 -1.18214 1.43049
                  }
                }
              }
              JOINT rIndex1
              {
                OFFSET -7.75947 0.938293 5.60832
                CHANNELS 3 Zrotation Xrotation Yrotation
                JOINT rIndex2
                {
                  OFFSET -2.54057 -0.884171 1.56538
                  CHANNELS 3 Zrotation Xrotation Yrotation
                  End Site
                  {
                    OFFSET -1.62519 -0.234802 1.16502
                  }
                }
              }
              JOINT rMid1
              {
                OFFSET -8.24714 1.18213 3.41376
                CHANNELS 3 Zrotation Xrotation Yrotation
                JOINT rMid2
                {
                  OFFSET -3.10165 -0.590103 1.0647
                  CHANNELS 3 Zrotation Xrotation Yrotation
                  End Site
                  {
                    OFFSET -2.48547 -0.328903 0.83742
                  }
                }
              }
              JOINT rRing1
              {
                OFFSET -8.82822 0.546677 1.51678
                CHANNELS 3 Zrotation Xrotation Yrotation
                JOINT rRing2
                {
                  OFFSET -2.60934 -0.819778 -0.0198488
                  CHANNELS 3 Zrotation Xrotation Yrotation
                  End Site
                  {
                    OFFSET -2.33842 -0.294052 0.168128
                  }
                }
              }
              JOINT rPinky1
              {
                OFFSET -8.27202 -0.0477905 -0.4584
                CHANNELS 3 Zrotation Xrotation Yrotation
                JOINT rPinky2
                {
                  OFFSET -1.82734 -0.647385 -0.700984
                  CHANNELS 3 Zrotation Xrotation Yrotation
                  End Site
                  {
                    OFFSET -1.69225 -0.51767 -0.607171
                  }
                }
              }
            }
          }
        }
      }
      JOINT lCollar
      {
        OFFSET 2.68224 19.2634 -4.8768
        CHANNELS 3 Zrotation Xrotation Yrotation
        JOINT lShldr
        {
          OFFSET 8.77824 -1.95073 1.46304
          CHANNELS 3 Zrotation Xrotation Yrotation
          JOINT lForeArm
          {
            OFFSET 28.1742 -1.7115 0.48768
            CHANNELS 3 Zrotation Xrotation Yrotation
            JOINT lHand
            {
              OFFSET 22.5879 0.773209 7.07136
              CHANNELS 3 Zrotation Xrotation Yrotation
              JOINT lThumb1
              {
                OFFSET 1.2192 -0.487915 3.41376
                CHANNELS 3 Zrotation Xrotation Yrotation
                JOINT lThumb2
                {
                  OFFSET 3.37035 -0.52449 3.41376
                  CHANNELS 3 Zrotation Xrotation Yrotation
                  End Site
                  {
                    OFFSET 1.78271 -1.18214 1.43049
                  }
                }
              }
              JOINT lIndex1
              {
                OFFSET 7.75947 0.938293 5.60832
                CHANNELS 3 Zrotation Xrotation Yrotation
                JOINT lIndex2
                {
                  OFFSET 2.54057 -0.884171 1.56538
                  CHANNELS 3 Zrotation Xrotation Yrotation
                  End Site
                  {
                    OFFSET 1.62519 -0.234802 1.16502
                  }
                }
              }
              JOINT lMid1
              {
                OFFSET 8.24714 1.18213 3.41376
                CHANNELS 3 Zrotation Xrotation Yrotation
                JOINT lMid2
                {
                  OFFSET 3.10165 -0.590103 1.0647
                  CHANNELS 3 Zrotation Xrotation Yrotation
                  End Site
                  {
                    OFFSET 2.48547 -0.328903 0.83742
                  }
                }
              }
              JOINT lRing1
              {
                OFFSET 8.82822 0.546677 1.51678
                CHANNELS 3 Zrotation Xrotation Yrotation
                JOINT lRing2
                {
                  OFFSET 2.60934 -0.819778 -0.0198488
                  CHANNELS 3 Zrotation Xrotation Yrotation
                  End Site
                  {
                    OFFSET 2.33842 -0.294052 0.168128
                  }
                }
              }
              JOINT lPinky1
              {
                OFFSET 8.27202 -0.0477905 -0.4584
                CHANNELS 3 Zrotation Xrotation Yrotation
                JOINT lPinky2
                {
                  OFFSET 1.82734 -0.647385 -0.700984
                  CHANNELS 3 Zrotation Xrotation Yrotation
                  End Site
                  {
                    OFFSET 1.69225 -0.51767 -0.607171
                  }
                }
              }
            }
          }
        }
      }
    }
  }
  JOINT rButtock
  {
    OFFSET -8.77824 4.35084 1.2192
    CHANNELS 3 Zrotation Xrotation Yrotation
    JOINT rThigh
    {
      OFFSET 0.0 -1.70687 -2.19456
      CHANNELS 3 Zrotation Xrotation Yrotation
      JOINT rShin
      {
        OFFSET 0.0 -36.8199 0.73152
        CHANNELS 3 Zrotation Xrotation Yrotation
        JOINT rFoot
        {
          OFFSET 0.73152 -45.1104 -5.12064
          CHANNELS 3 Zrotation Xrotation Yrotation
          End Site
          {
            OFFSET -1.1221 -3.69964 12.103
          }
        }
      }
    }
  }
  JOINT lButtock
  {
    OFFSET 8.77824 4.35084 1.2192
    CHANNELS 3 Zrotation Xrotation Yrotation
    JOINT lThigh
    {
      OFFSET 0.0 -1.70687 -2.19456
      CHANNELS 3 Zrotation Xrotation Yrotation
      JOINT lShin
      {
        OFFSET 0.0 -36.8199 0.73152
        CHANNELS 3 Zrotation Xrotation Yrotation
        JOINT lFoot
        {
          OFFSET -0.73152 -45.1104 -5.12064
          CHANNELS 3 Zrotation Xrotation Yrotation
          End Site
          {
            OFFSET 1.1221 -3.69964 12.103
          }
        }
      }
    }
  }
}
MOTION
Frames: 8
Frame Time: 0.00833333
10.3161 77.8017 -54.8475 -4.37 9.2419 1.5558 -1.23923 3.4763 7.87972 -2.45496 -3.17464 2.1222 1.89822 -5.74011 -2.43211 -5.03152 -15.6413 -6.29633 -0.0 0.0 0.0 -0.0 0.0 0.0 -8.04095e-15 4.63996e-14 -9.76996e-14 44.8655 6.31199 28.695 -23.6045 -18.37 48.4172 -1.19276 -29.4066 -4.54326 3.40438e-10 1.12625e-08 4.59099e-10 5.76474e-10 1.9812e-08 8.0104e-10 3.40441e-10 1.12625e-08 4.59089e-10 7.73091 5.47488 0.417314 3.40438e-10 1.12625e-08 4.59095e-10 2.90554 0.965183 0.102902 3.40443e-10 1.12625e-08 4.59095e-10 10.2786 0.731801 0.0259123 3.40433e-10 1.12625e-08 4.59102e-10 2.22167 -0.733487 -0.20892 -8.13882e-15 4.64071e-14 -9.78766e-14 -73.4928 -12.9253 33.6939 8.19311 -3.11333 -14.4541 0.00224373 1.2358 -0.173656 -8.55575e-10 1.28457e-09 2.6726e-10 -1.47944e-09 2.22147e-09 4.63733e-10 -8.5558e-10 1.28457e-09 2.67276e-10 -7.73091 5.47488 -0.417314 -8.55576e-10 1.28457e-09 2.67261e-10 -2.90554 0.965183 -0.102902 -8.55587e-10 1.28457e-09 2.67258e-10 -10.2786 0.731801 -0.0259123 -8.55575e-10 1.28457e-09 2.6725e-10 -2.22167 -0.733487 0.20892 -2.03217e-16 0.0 -3.88251e-19 6.47134 17.331 -2.22408 -0.033531 19.8984 0.609112 -5.93359 -5.42285 -31.9382 2.03217e-16 0.0 3.88251e-19 11.7104 -43.7596 1.5041 0.490384 45.254 -0.659666 0.99095 -1.96373 4.18085
10.6389 77.7361 -53.9419 -4.1716 9.1197 1.2906 -1.55499 3.83512 7.55993 -2.34747 -3.20208 2.02119 1.95222 -5.88744 -2.37103 -4.88593 -15.4607 -6.17093 -0.0 0.0 0.0 -0.0 0.0 0.0 -4.37517e-14 8.09676e-14 -1.22105e-13 46.2111 9.30179 27.4779 -23.6153 -18.3896 48.4478 -1.15596 -28.9983 -4.46775 3.09617e-10 1.45812e-08 5.55075e-10 5.20787e-10 2.57192e-08 9.66846e-10 3.09619e-10 1.45812e-08 5.55064e-10 7.73091 5.47488 0.417314 3.09616e-10 1.45812e-08 5.5507e-10 2.90554 0.965183 0.102902 3.09624e-10 1.45812e-08 5.55068e-10 10.2786 0.731801 0.0259123 3.09614e-10 1.45812e-08 5.55075e-10 2.22167 -0.733487 -0.20892 -4.38783e-14 8.09662e-14 -1.22292e-13 -74.8012 -12.0576 31.1626 8.1333 -3.08158 -14.3448 0.00109642 0.574234 -0.0806585 -4.07542e-10 7.82493e-10 2.81214e-10 -7.05546e-10 1.35302e-09 4.8648e-10 -4.07551e-10 7.82493e-10 2.81229e-10 -7.73091 5.47488 -0.417314 -4.07543e-10 7.82495e-10 2.81213e-10 -2.90554 0.965183 -0.102902 -4.07557e-10 7.82495e-10 2.81212e-10 -10.2786 0.731801 -0.0259123 -4.07546e-10 7.82495e-10 2.81205e-10 -2.22167 -0.733487 0.20892 -2.03217e-16 0.0 -3.88251e-19 5.78611 16.2335 -2.51901 -0.0638611 23.1413 0.634926 -5.5261 -4.70828 -31.3261 2.03217e-16 0.0 3.88251e-19 11.3583 -43.2718 1.69858 0.514181 45.9355 -0.649385 0.948135 -1.99411 3.96272
10.9324 77.7081 -53.0098 -4.1137 8.9616 0.9398 -1.79762 4.1977 7.27117 -2.21999 -3.22993 1.92972 2.00864 -5.97766 -2.31349 -4.78626 -15.314 -6.05958 -0.0 0.0 0.0 -0.0 0.0 0.0 -6.44349e-14 9.95938e-14 -1.58928e-13 47.5776 12.2524 26.2353 -23.5373 -18.257 48.1773 -1.11873 -28.5776 -4.39053 4.56219e-10 1.46744e-08 4.98466e-10 7.74783e-10 2.59366e-08 8.71967e-10 4.56222e-10 1.46744e-08 4.98453e-10 7.73091 5.47488 0.417314 4.56218e-10 1.46744e-08 4.9846e-10 2.90554 0.965183 0.102902 4.56227e-10 1.46744e-08 4.98457e-10 10.2786 0.731801 0.0259123 4.56218e-10 1.46744e-08 4.98463e-10 2.22167 -0.733487 -0.20892 -6.45806e-14 9.9587e-14 -1.59127e-13 -76.1295 -10.9089 28.5697 8.13285 -3.08162 -14.3436 3.55385e-05 -0.170227 0.0239239 -1.0617e-10 7.62004e-10 1.41706e-10 -1.84067e-10 1.31818e-09 2.43823e-10 -1.06181e-10 7.62004e-10 1.41719e-10 -7.73091 5.47488 -0.417314 -1.06171e-10 7.62007e-10 1.41703e-10 -2.90554 0.965183 -0.102902 -1.06186e-10 7.62008e-10 1.41704e-10 -10.2786 0.731801 -0.0259123 -1.06175e-10 7.62007e-10 1.41697e-10 -2.22167 -0.733487 0.20892 -2.03217e-16 0.0 -3.88251e-19 5.10142 15.0968 -2.79481 -0.102874 26.3431 0.654704 -4.90993 -3.65698 -30.5938 2.03217e-16 0.0 3.88251e-19 11.0412 -42.6228 1.87651 0.533513 46.474 -0.637506 0.928375 -2.16242 3.84539
11.2096 77.7268 -52.0598 -4.1228 8.7772 0.5317 -1.89981 4.59021 7.04283 -2.08426 -3.25734 1.8564 2.07146 -6.00631 -2.25703 -4.757 -15.2159 -5.96275 -0.0 0.0 0.0 -0.0 0.0 0.0 -6.29575e-14 9.3774e-14 -2.3079e-13 48.9362 15.1756 24.9499 -23.3413 -17.9157 47.5746 -1.08391 -28.1722 -4.31683 9.88613e-10 9.18551e-09 1.4932e-10 1.70121e-09 1.63187e-08 2.78216e-10 9.88616e-10 9.18552e-09 1.49307e-10 7.73091 5.47488 0.417314 9.88612e-10 9.18552e-09 1.49314e-10 2.90554 0.965183 0.102902 9.88621e-10 9.18552e-09 1.49312e-10 10.2786 0.731801 0.0259123 9.88612e-10 9.18552e-09 1.49316e-10 2.22167 -0.733487 -0.20892 -6.31083e-14 9.37671e-14 -2.31003e-13 -77.466 -9.45583 25.9004 8.1707 -3.09922 -14.4165 0.00222333 -0.921313 0.129714 -1.70962e-11 1.65296e-09 -3.34166e-10 -2.71483e-11 2.86125e-09 -5.80864e-10 -1.71078e-11 1.65296e-09 -3.34156e-10 -7.73091 5.47488 -0.417314 -1.70966e-11 1.65296e-09 -3.3417e-10 -2.90554 0.965183 -0.102902 -1.71129e-11 1.65297e-09 -3.34168e-10 -10.2786 0.731801 -0.0259123 -1.71e-11 1.65296e-09 -3.34177e-10 -2.22167 -0.733487 0.20892 -2.03217e-16 0.0 -3.88251e-19 4.45685 13.9438 -3.03499 -0.148713 29.4991 0.662969 -4.05134 -2.1681 -29.7264 2.03217e-16 0.0 3.88251e-19 10.85 -41.76 2.095 0.548495 46.86 -0.624237 0.936324 -2.53215 3.82993
11.4917 77.7896 -51.1013 -4.0962 8.5748 0.1115 -1.88435 5.02133 6.85773 -1.94582 -3.27732 1.79603 2.13753 -5.99771 -2.20476 -4.77631 -15.154 -5.88275 -0.0 0.0 0.0 -0.0 0.0 0.0 -4.56093e-14 7.13214e-14 -3.26575e-13 50.3399 18.0865 23.5755 -23.0367 -17.3912 46.7052 -1.05045 -27.7717 -4.24468 1.78423e-09 -9.72515e-11 -3.97407e-10 3.08639e-09 1.95515e-11 -6.52447e-10 1.78424e-09 -9.72484e-11 -3.9742e-10 7.73091 5.47488 0.417314 1.78423e-09 -9.72471e-11 -3.97412e-10 2.90554 0.965183 0.102902 1.78424e-09 -9.72475e-11 -3.97412e-10 10.2786 0.731801 0.0259123 1.78423e-09 -9.72493e-11 -3.9741e-10 2.22167 -0.733487 -0.20892 -4.57569e-14 7.13178e-14 -3.26802e-13 -78.7178 -7.73884 23.1517 8.23869 -3.13106 -14.5473 0.00806279 -1.73621 0.244724 -5.83644e-11 3.18043e-09 -1.02833e-09 -9.38491e-11 5.50622e-09 -1.78335e-09 -5.83761e-11 3.18044e-09 -1.02833e-09 -7.73091 5.47488 -0.417314 -5.83642e-11 3.18043e-09 -1.02834e-09 -2.90554 0.965183 -0.102902 -5.83814e-11 3.18044e-09 -1.02833e-09 -10.2786 0.731801 -0.0259123 -5.83649e-11 3.18043e-09 -1.02834e-09 -2.22167 -0.733487 0.20892 -2.03217e-16 0.0 -3.88251e-19 3.84125 12.7776 -3.28448 -0.198266 32.6367 0.661944 -3.01207 -0.289882 -28.7284 2.03217e-16 0.0 3.88251e-19 10.7465 -40.728 2.32986 0.560792 47.1432 -0.61069 0.967163 -3.09156 3.88287
11.7894 77.89 -50.1472 -3.971 8.3846 -0.2809 -1.88751 5.42543 6.6627 -1.77399 -3.29706 1.73311 2.19961 -5.94365 -2.15994 -4.80435 -15.1046 -5.81645 -0.0 0.0 0.0 -0.0 0.0 0.0 -2.37222e-14 4.55108e-14 -4.03726e-13 51.8394 20.9263 22.1161 -22.6455 -16.7472 45.6073 -1.01316 -27.3215 -4.16398 2.46617e-09 -9.2127e-09 -8.98041e-10 4.27438e-09 -1.5999e-08 -1.50558e-09 2.46618e-09 -9.2127e-09 -8.98054e-10 7.73091 5.47488 0.417314 2.46617e-09 -9.2127e-09 -8.98045e-10 2.90554 0.965183 0.102902 2.46618e-09 -9.2127e-09 -8.98043e-10 10.2786 0.731801 0.0259123 2.46617e-09 -9.21271e-09 -8.98042e-10 2.22167 -0.733487 -0.20892 -2.38638e-14 4.55114e-14 -4.03965e-13 -79.8284 -5.74193 20.4063 8.38971 -3.21144 -14.825 0.0142486 -2.74359 0.386601 -1.43757e-10 4.58344e-09 -1.61781e-09 -2.37537e-10 7.93543e-09 -2.80441e-09 -1.43768e-10 4.58345e-09 -1.61781e-09 -7.73091 5.47488 -0.417314 -1.43756e-10 4.58344e-09 -1.61782e-09 -2.90554 0.965183 -0.102902 -1.43773e-10 4.58345e-09 -1.61781e-09 -10.2786 0.731801 -0.0259123 -1.43753e-10 4.58344e-09 -1.61783e-09 -2.22167 -0.733487 0.20892 -2.03217e-16 0.0 -3.88251e-19 3.17468 11.5447 -3.54869 -0.2526 35.7458 0.660068 -1.91019 1.83492 -27.682 2.03217e-16 0.0 3.88251e-19 10.5514 -39.612 2.46951 0.569211 47.3076 -0.595639 1.01782 -3.70633 4.02763
12.1098 78.021 -49.2032 -3.7076 8.2384 -0.6104 -2.04503 5.73687 6.40428 -1.53819 -3.32376 1.65211 2.25045 -5.83591 -2.12582 -4.80143 -15.0442 -5.76076 -0.0 0.0 0.0 -0.0 0.0 0.0 -8.62798e-15 2.9617e-14 -4.19684e-13 53.4773 23.6321 20.5735 -22.1934 -16.0504 44.3153 -0.967579 -26.7667 -4.0651 2.65753e-09 -1.41996e-08 -1.10891e-09 4.60927e-09 -2.47751e-08 -1.86673e-09 2.65753e-09 -1.41996e-08 -1.10892e-09 7.73091 5.47488 0.417314 2.65753e-09 -1.41996e-08 -1.10891e-09 2.90554 0.965183 0.102902 2.65753e-09 -1.41996e-08 -1.10891e-09 10.2786 0.731801 0.0259123 2.65753e-09 -1.41996e-08 -1.10891e-09 2.22167 -0.733487 -0.20892 -8.76627e-15 2.96199e-14 -4.19933e-13 -80.75 -3.45802 17.7435 8.67488 -3.37407 -15.3388 0.0203805 -4.07211 0.573273 -1.87055e-10 5.10101e-09 -1.77963e-09 -3.1158e-10 8.83123e-09 -3.08479e-09 -1.87066e-10 5.10102e-09 -1.77963e-09 -7.73091 5.47488 -0.417314 -1.87054e-10 5.10101e-09 -1.77964e-09 -2.90554 0.965183 -0.102902 -1.87071e-10 5.10102e-09 -1.77963e-09 -10.2786 0.731801 -0.0259123 -1.87049e-10 5.10101e-09 -1.77965e-09 -2.22167 -0.733487 0.20892 -2.03217e-16 0.0 -3.88251e-19 2.37564 10.1917 -3.83307 -0.315128 38.8163 0.667001 -0.844579 4.05227 -26.6571 2.03217e-16 0.0 3.88251e-19 10.0983 -38.4974 2.41033 0.572582 47.3375 -0.577881 1.08567 -4.24205 4.28736
12.4488 78.1694 -48.2713 -3.3226 8.149 -0.871 -2.42898 5.91497 6.07292 -1.21356 -3.35655 1.55013 2.29523 -5.63619 -2.10361 -4.7707 -15.003 -5.72005 -0.0 0.0 0.0 -0.0 0.0 0.0 -3.64544e-15 3.03523e-14 -3.26137e-13 55.2159 26.2699 18.9549 -21.6498 -15.2546 42.7918 -0.928156 -26.2244 -3.97083 2.04855e-09 -1.2925e-08 -8.28124e-10 3.55228e-09 -2.25689e-08 -1.39242e-09 2.04855e-09 -1.2925e-08 -8.28138e-10 7.73091 5.47488 0.417314 2.04855e-09 -1.2925e-08 -8.28127e-10 2.90554 0.965183 0.102902 2.04855e-09 -1.2925e-08 -8.28124e-10 10.2786 0.731801 0.0259123 2.04854e-09 -1.2925e-08 -8.28124e-10 2.22167 -0.733487 -0.20892 -3.7844e-15 3.03545e-14 -3.26393e-13 -81.5171 -0.800998 15.1453 9.08272 -3.6012 -16.0976 0.0369051 -5.80461 0.818404 -1.76759e-10 4.16852e-09 -1.17827e-09 -2.99287e-10 7.21471e-09 -2.04371e-09 -1.76771e-10 4.16852e-09 -1.17826e-09 -7.73091 5.47488 -0.417314 -1.76758e-10 4.16852e-09 -1.17827e-09 -2.90554 0.965183 -0.102902 -1.76773e-10 4.16852e-09 -1.17826e-09 -10.2786 0.731801 -0.0259123 -1.76753e-10 4.16852e-09 -1.17828e-09 -2.22167 -0.733487 0.20892 -2.03217e-16 0.0 -3.88251e-19 1.37673 8.66282 -4.12161 -0.391454 41.8752 0.683539 0.264474 6.53147 -25.5864 2.03217e-16 0.0 3.88251e-19 9.32101 -37.3947 2.12337 0.570246 47.2059 -0.556751 1.17902 -4.68247 4.70095
